<svg width="324" height="258" viewBox="0 0 324 258" fill="none" xmlns="http://www.w3.org/2000/svg">
<path d="M151.5 255.016C225.387 255.016 285.284 251.519 285.284 247.206C285.284 242.892 225.387 239.395 151.5 239.395C77.613 239.395 17.7158 242.892 17.7158 247.206C17.7158 251.519 77.613 255.016 151.5 255.016Z" fill="#F5F5F5"/>
<path d="M191.361 42.731C190.8 40.8769 190.056 39.0833 189.139 37.3766L190.519 32.8571L181.598 23.9285L177.078 25.3085C175.371 24.3921 173.578 23.6478 171.724 23.0867L169.502 18.9467H156.875L154.66 23.0867C152.805 23.6465 151.012 24.3908 149.306 25.3085L144.786 23.9285L135.858 32.8571L137.238 37.3766C136.326 39.0849 135.584 40.8782 135.023 42.731L130.848 44.9528V57.5798L135.023 59.7947C135.583 61.648 136.325 63.4415 137.238 65.1491L135.858 69.6686L144.786 78.5972L149.306 77.2172C151.013 78.1298 152.807 78.8717 154.66 79.4321L156.875 83.5721H169.502L171.724 79.4321C173.577 78.8703 175.37 78.1284 177.078 77.2172L181.598 78.5972L190.526 69.6686L189.146 65.1491C190.064 63.4431 190.808 61.6493 191.368 59.7947L195.543 57.5798V44.9528L191.361 42.731ZM163.188 69.1994C159.64 69.1994 156.172 68.1473 153.222 66.176C150.271 64.2047 147.972 61.4029 146.614 58.1248C145.256 54.8466 144.901 51.2395 145.593 47.7595C146.285 44.2795 147.994 41.0829 150.503 38.5739C153.012 36.065 156.208 34.3563 159.689 33.6641C163.169 32.9719 166.776 33.3272 170.054 34.685C173.332 36.0429 176.134 38.3423 178.105 41.2925C180.076 44.2427 181.128 47.7112 181.128 51.2594C181.128 56.0174 179.238 60.5805 175.874 63.9449C172.51 67.3093 167.946 69.1994 163.188 69.1994Z" fill="#9971D7"/>
<path opacity="0.2" d="M191.361 42.731C190.8 40.8769 190.056 39.0833 189.139 37.3766L190.519 32.8571L181.598 23.9285L177.078 25.3085C175.371 24.3921 173.578 23.6478 171.724 23.0867L169.502 18.9467H156.875L154.66 23.0867C152.805 23.6465 151.012 24.3908 149.306 25.3085L144.786 23.9285L135.858 32.8571L137.238 37.3766C136.326 39.0849 135.584 40.8782 135.023 42.731L130.848 44.9528V57.5798L135.023 59.7947C135.583 61.648 136.325 63.4415 137.238 65.1491L135.858 69.6686L144.786 78.5972L149.306 77.2172C151.013 78.1298 152.807 78.8717 154.66 79.4321L156.875 83.5721H169.502L171.724 79.4321C173.577 78.8703 175.37 78.1284 177.078 77.2172L181.598 78.5972L190.526 69.6686L189.146 65.1491C190.064 63.4431 190.808 61.6493 191.368 59.7947L195.543 57.5798V44.9528L191.361 42.731ZM163.188 69.1994C159.64 69.1994 156.172 68.1473 153.222 66.176C150.271 64.2047 147.972 61.4029 146.614 58.1248C145.256 54.8466 144.901 51.2395 145.593 47.7595C146.285 44.2795 147.994 41.0829 150.503 38.5739C153.012 36.065 156.208 34.3563 159.689 33.6641C163.169 32.9719 166.776 33.3272 170.054 34.685C173.332 36.0429 176.134 38.3423 178.105 41.2925C180.076 44.2427 181.128 47.7112 181.128 51.2594C181.128 56.0174 179.238 60.5805 175.874 63.9449C172.51 67.3093 167.946 69.1994 163.188 69.1994Z" fill="white"/>
<path d="M163.189 45.3185C162.012 45.3185 160.862 45.6673 159.884 46.3209C158.906 46.9744 158.144 47.9033 157.693 48.9902C157.243 50.077 157.126 51.2729 157.355 52.4266C157.585 53.5804 158.151 54.6402 158.983 55.472C159.815 56.3038 160.874 56.8703 162.028 57.0998C163.182 57.3293 164.378 57.2115 165.465 56.7613C166.551 56.3112 167.48 55.5488 168.134 54.5707C168.787 53.5926 169.136 52.4426 169.136 51.2663C169.136 49.6888 168.51 48.176 167.394 47.0605C166.279 45.9451 164.766 45.3185 163.189 45.3185Z" fill="#9971D7"/>
<path d="M281.22 62.7617C280.418 60.111 279.357 57.5456 278.053 55.1027L280.026 48.6443L267.282 35.9L260.817 37.8803C258.382 36.5609 255.818 35.4972 253.164 34.7063L249.997 28.7447H231.954L228.78 34.7063C226.127 35.4997 223.563 36.5633 221.128 37.8803L214.669 35.9L201.911 48.6581L203.885 55.1165C202.574 57.5567 201.513 60.1226 200.718 62.7755L194.749 65.9426V83.9861L200.711 87.1601C201.505 89.8112 202.566 92.375 203.878 94.8122L201.904 101.264L214.662 114.022L221.121 112.048C223.559 113.361 226.125 114.42 228.78 115.209L231.954 121.177H249.997L253.164 115.215C255.816 114.419 258.38 113.355 260.817 112.041L267.282 114.015L280.04 101.257L278.067 94.7984C279.367 92.3579 280.424 89.7947 281.22 87.1463L287.181 83.9723V65.9288L281.22 62.7617ZM240.972 107.66C234.502 107.66 228.177 105.741 222.798 102.147C217.418 98.5523 213.225 93.4433 210.749 87.4658C208.273 81.4883 207.626 74.9108 208.888 68.5651C210.15 62.2194 213.266 56.3906 217.841 51.8156C222.416 47.2406 228.244 44.125 234.59 42.8628C240.936 41.6005 247.513 42.2484 253.491 44.7243C259.468 47.2003 264.577 51.3932 268.172 56.7728C271.766 62.1524 273.685 68.4771 273.685 74.9471C273.685 79.243 272.839 83.4969 271.195 87.4658C269.551 91.4347 267.141 95.0409 264.104 98.0786C261.066 101.116 257.46 103.526 253.491 105.17C249.522 106.814 245.268 107.66 240.972 107.66Z" fill="#9971D7"/>
<path d="M240.972 46.8228C235.409 46.8241 229.97 48.4751 225.345 51.5671C220.72 54.659 217.115 59.053 214.987 64.1935C212.859 69.3339 212.303 74.9899 213.389 80.4464C214.475 85.9029 217.155 90.9148 221.09 94.8483C225.024 98.7819 230.037 101.46 235.493 102.545C240.95 103.63 246.606 103.073 251.746 100.943C256.886 98.8139 261.279 95.2083 264.37 90.5822C267.461 85.9562 269.11 80.5176 269.11 74.9541C269.101 67.4948 266.133 60.3437 260.858 55.0699C255.583 49.796 248.431 46.8301 240.972 46.8228ZM240.972 99.3387C236.149 99.34 231.434 97.911 227.423 95.2325C223.412 92.5539 220.285 88.746 218.439 84.2904C216.592 79.8348 216.108 74.9317 217.048 70.2011C217.988 65.4705 220.31 61.1249 223.72 57.714C227.13 54.303 231.475 51.98 236.205 51.0385C240.936 50.0971 245.839 50.5796 250.295 52.425C254.751 54.2704 258.56 57.3958 261.24 61.406C263.919 65.4161 265.35 70.1309 265.35 74.9541C265.342 81.4178 262.772 87.6148 258.202 92.1861C253.632 96.7573 247.436 99.3295 240.972 99.3387Z" fill="#9971D7"/>
<path opacity="0.2" d="M240.972 46.8228C235.409 46.8241 229.97 48.4751 225.345 51.5671C220.72 54.659 217.115 59.053 214.987 64.1935C212.859 69.3339 212.303 74.9899 213.389 80.4464C214.475 85.9029 217.155 90.9148 221.09 94.8483C225.024 98.7819 230.037 101.46 235.493 102.545C240.95 103.63 246.606 103.073 251.746 100.943C256.886 98.8139 261.279 95.2083 264.37 90.5822C267.461 85.9562 269.11 80.5176 269.11 74.9541C269.101 67.4948 266.133 60.3437 260.858 55.0699C255.583 49.796 248.431 46.8301 240.972 46.8228ZM240.972 99.3387C236.149 99.34 231.434 97.911 227.423 95.2325C223.412 92.5539 220.285 88.746 218.439 84.2904C216.592 79.8348 216.108 74.9317 217.048 70.2011C217.988 65.4705 220.31 61.1249 223.72 57.714C227.13 54.303 231.475 51.98 236.205 51.0385C240.936 50.0971 245.839 50.5796 250.295 52.425C254.751 54.2704 258.56 57.3958 261.24 61.406C263.919 65.4161 265.35 70.1309 265.35 74.9541C265.342 81.4178 262.772 87.6148 258.202 92.1861C253.632 96.7573 247.436 99.3295 240.972 99.3387Z" fill="black"/>
<path d="M176.34 122.95C176.157 122.95 175.981 122.878 175.852 122.748C175.723 122.619 175.65 122.443 175.65 122.26V120.88C175.65 120.697 175.723 120.522 175.852 120.393C175.981 120.263 176.157 120.19 176.34 120.19C176.523 120.19 176.698 120.263 176.828 120.393C176.957 120.522 177.03 120.697 177.03 120.88V122.26C177.03 122.443 176.957 122.619 176.828 122.748C176.698 122.878 176.523 122.95 176.34 122.95Z" fill="#9971D7"/>
<path d="M165.597 105.121C164.963 104.714 164.468 104.124 164.175 103.43C164.103 103.262 163.967 103.129 163.797 103.061C163.626 102.993 163.436 102.996 163.268 103.068C163.1 103.14 162.967 103.277 162.899 103.447C162.831 103.617 162.833 103.807 162.906 103.975C163.311 104.918 163.985 105.72 164.845 106.28C164.956 106.352 165.085 106.39 165.217 106.39C165.367 106.392 165.512 106.344 165.632 106.255C165.753 106.167 165.841 106.041 165.883 105.898C165.926 105.755 165.921 105.602 165.87 105.462C165.818 105.322 165.722 105.202 165.597 105.121Z" fill="#9971D7"/>
<path d="M163.189 96.5027C163.372 96.5027 163.547 96.43 163.676 96.3006C163.806 96.1712 163.879 95.9957 163.879 95.8127V93.17C163.879 92.987 163.806 92.8115 163.676 92.6821C163.547 92.5527 163.372 92.48 163.189 92.48C163.006 92.48 162.83 92.5527 162.701 92.6821C162.571 92.8115 162.499 92.987 162.499 93.17V95.8127C162.499 95.9957 162.571 96.1712 162.701 96.3006C162.83 96.43 163.006 96.5027 163.189 96.5027Z" fill="#9971D7"/>
<path d="M170.371 105.728H167.722C167.539 105.728 167.363 105.801 167.234 105.93C167.104 106.06 167.032 106.235 167.032 106.418C167.032 106.601 167.104 106.777 167.234 106.906C167.363 107.035 167.539 107.108 167.722 107.108H170.371C170.554 107.108 170.73 107.035 170.859 106.906C170.989 106.777 171.061 106.601 171.061 106.418C171.061 106.235 170.989 106.06 170.859 105.93C170.73 105.801 170.554 105.728 170.371 105.728Z" fill="#9971D7"/>
<path d="M163.879 101.105V98.4623C163.879 98.2793 163.806 98.1038 163.676 97.9744C163.547 97.845 163.372 97.7723 163.189 97.7723C163.006 97.7723 162.83 97.845 162.701 97.9744C162.571 98.1038 162.499 98.2793 162.499 98.4623V101.105C162.499 101.288 162.571 101.464 162.701 101.593C162.83 101.722 163.006 101.795 163.189 101.795C163.372 101.795 163.547 101.722 163.676 101.593C163.806 101.464 163.879 101.288 163.879 101.105Z" fill="#9971D7"/>
<path d="M176.988 110.213C176.964 110.032 176.869 109.868 176.724 109.757C176.58 109.645 176.397 109.596 176.215 109.62C176.126 109.635 176.04 109.667 175.962 109.716C175.885 109.764 175.818 109.827 175.766 109.902C175.713 109.976 175.676 110.06 175.656 110.149C175.636 110.238 175.634 110.33 175.65 110.42C175.672 110.58 175.683 110.741 175.684 110.903V112.973C175.684 113.156 175.757 113.332 175.886 113.461C176.016 113.59 176.191 113.663 176.374 113.663C176.557 113.663 176.733 113.59 176.862 113.461C176.991 113.332 177.064 113.156 177.064 112.973V110.903C177.054 110.672 177.029 110.441 176.988 110.213Z" fill="#9971D7"/>
<path d="M176.34 114.898C176.157 114.898 175.981 114.971 175.852 115.1C175.723 115.23 175.65 115.405 175.65 115.588V118.238C175.65 118.421 175.723 118.596 175.852 118.726C175.981 118.855 176.157 118.928 176.34 118.928C176.523 118.928 176.698 118.855 176.828 118.726C176.957 118.596 177.03 118.421 177.03 118.238V115.588C177.03 115.405 176.957 115.23 176.828 115.1C176.698 114.971 176.523 114.898 176.34 114.898Z" fill="#9971D7"/>
<path d="M175.739 107.474C175.064 106.702 174.172 106.152 173.18 105.894C173.092 105.871 173 105.866 172.91 105.879C172.82 105.891 172.734 105.922 172.656 105.968C172.578 106.014 172.509 106.075 172.455 106.147C172.4 106.22 172.36 106.302 172.338 106.39C172.315 106.478 172.31 106.57 172.323 106.66C172.335 106.75 172.366 106.836 172.412 106.914C172.458 106.992 172.519 107.061 172.592 107.115C172.664 107.17 172.747 107.21 172.835 107.232C173.56 107.419 174.211 107.821 174.704 108.384C174.769 108.458 174.849 108.517 174.938 108.558C175.027 108.598 175.124 108.619 175.222 108.619C175.355 108.619 175.484 108.581 175.596 108.509C175.707 108.437 175.795 108.334 175.85 108.213C175.905 108.092 175.923 107.958 175.904 107.827C175.884 107.696 175.827 107.573 175.739 107.474Z" fill="#9971D7"/>
<path d="M163.189 91.1829C163.006 91.1829 162.83 91.1102 162.701 90.9808C162.571 90.8514 162.499 90.6759 162.499 90.4929V89.1129C162.499 88.9299 162.571 88.7543 162.701 88.6249C162.83 88.4955 163.006 88.4229 163.189 88.4229C163.372 88.4229 163.547 88.4955 163.676 88.6249C163.806 88.7543 163.879 88.9299 163.879 89.1129V90.4929C163.879 90.6759 163.806 90.8514 163.676 90.9808C163.547 91.1102 163.372 91.1829 163.189 91.1829Z" fill="#9971D7"/>
<path d="M209.025 157.692H49.2627V160.252H209.025V157.692Z" fill="#9971D7"/>
<path d="M209.025 160.252H243.691V157.692H209.025V160.252Z" fill="#9971D7"/>
<path opacity="0.2" d="M209.025 160.252H243.691V157.692H209.025V160.252Z" fill="black"/>
<path d="M232.113 162.991H60.8408L55.1138 160.252H237.84L232.113 162.991Z" fill="#9971D7"/>
<path opacity="0.6" d="M232.113 162.991H60.8408L55.1138 160.252H237.84L232.113 162.991Z" fill="white"/>
<path d="M66.0161 162.991V244.646H68.2103L70.9703 162.991H66.0161Z" fill="#9971D7"/>
<path d="M91.9185 162.991V244.646H94.1127L96.8727 162.991H91.9185Z" fill="#9971D7"/>
<path d="M232.113 162.991V244.646H229.926L227.159 162.991H232.113Z" fill="#9971D7"/>
<path d="M206.217 162.991V244.646H204.023L201.263 162.991H206.217Z" fill="#9971D7"/>
<path d="M154.081 126.697L146.87 156.07L146.67 157.692H196.405L196.612 156.07L203.816 126.697H154.081Z" fill="#9971D7"/>
<path opacity="0.3" d="M154.081 126.697L146.87 156.07L146.67 157.692H196.405L196.612 156.07L203.816 126.697H154.081Z" fill="black"/>
<path d="M202.291 126.697H152.549L145.345 156.07H195.08L202.291 126.697Z" fill="#9971D7"/>
<path d="M194.025 154.725L200.58 128.043H153.605L147.057 154.725H194.025Z" fill="white"/>
<path d="M182.122 156.07L181.915 157.692H127.15L127.35 156.07H182.122Z" fill="#9971D7"/>
<path opacity="0.6" d="M182.122 156.07L181.915 157.692H127.15L127.35 156.07H182.122Z" fill="white"/>
<path d="M78.6637 152.351C78.6291 151.3 78.2176 150.297 77.5044 149.524C76.7912 148.751 75.8239 148.261 74.779 148.142V147.349C74.7782 147.303 74.7681 147.258 74.7495 147.216C74.7309 147.174 74.7041 147.136 74.6707 147.104C74.6373 147.073 74.5979 147.048 74.5549 147.032C74.5119 147.016 74.4661 147.009 74.4202 147.011H66.9682C66.922 147.009 66.8759 147.016 66.8325 147.032C66.7891 147.048 66.7493 147.073 66.7153 147.104C66.6813 147.135 66.6539 147.173 66.6345 147.215C66.6152 147.257 66.6043 147.303 66.6025 147.349V157.699H74.779V156.567C75.8256 156.45 76.7946 155.959 77.5082 155.184C78.2218 154.41 78.6321 153.404 78.6637 152.351ZM74.779 155.229V149.481C75.4686 149.583 76.0987 149.929 76.5542 150.456C77.0097 150.984 77.2603 151.658 77.2603 152.355C77.2603 153.052 77.0097 153.726 76.5542 154.253C76.0987 154.781 75.4686 155.127 74.779 155.229Z" fill="#9971D7"/>
<path d="M218.126 157.692H225.054L223.005 142.519H218.126V157.692Z" fill="#263238"/>
<path d="M207.97 157.692H221.094L223.529 139.931H210.412L207.97 157.692Z" fill="#9971D7"/>
<path opacity="0.3" d="M207.97 157.692H221.094L223.529 139.931H210.412L207.97 157.692Z" fill="black"/>
<path d="M206.217 157.692H219.872L222.315 139.931H208.659L206.217 157.692Z" fill="#9971D7"/>
<path opacity="0.4" d="M218.665 156.291L220.721 141.332H209.867L207.811 156.291H218.665Z" fill="white"/>
<path d="M115.303 131.472L114.737 132.079L114.13 132.769C113.723 133.238 113.316 133.714 112.929 134.204C112.156 135.184 111.411 136.185 110.714 137.213C109.328 139.201 108.17 141.34 107.264 143.588C106.842 144.657 106.514 145.761 106.285 146.887C106.174 147.521 106.105 147.797 106.071 148.066C106.032 148.281 106.032 148.5 106.071 148.715C106.186 149.052 106.368 149.363 106.605 149.63C106.842 149.896 107.129 150.113 107.451 150.268C107.916 150.555 108.406 150.802 108.913 151.006C109.18 151.116 109.456 151.22 109.741 151.316C110.004 151.413 110.335 151.51 110.542 151.592V155.394C110.059 155.463 109.707 155.518 109.3 155.546C108.893 155.574 108.499 155.581 108.092 155.546C107.255 155.529 106.423 155.423 105.608 155.229C104.691 155.013 103.811 154.659 103 154.18C102.046 153.622 101.227 152.861 100.599 151.951C99.9528 150.983 99.5244 149.886 99.3431 148.736C99.2969 148.466 99.267 148.194 99.2534 147.922C99.2397 147.659 99.2397 147.397 99.2534 147.135V146.749C99.2456 146.645 99.2456 146.541 99.2534 146.438L99.3086 145.831C99.4851 144.254 99.818 142.698 100.302 141.187C101.237 138.284 102.552 135.519 104.215 132.962C105.013 131.707 105.882 130.498 106.816 129.34C107.278 128.76 107.754 128.194 108.251 127.636C108.493 127.353 108.748 127.077 109.01 126.801C109.272 126.525 109.514 126.283 109.873 125.938L115.303 131.472Z" fill="#B55B52"/>
<path d="M109.169 151.51L112.384 149.15L114.213 155.76C114.213 155.76 111.363 156.816 109.19 155.394L109.169 151.51Z" fill="#B55B52"/>
<path d="M116.849 147.563L118.104 153.097L114.213 155.76L112.384 149.15L116.849 147.563Z" fill="#B55B52"/>
<path d="M137.183 106.108C137.038 106.515 137.141 106.922 137.411 107.011C137.68 107.101 138.011 106.853 138.149 106.446C138.287 106.039 138.19 105.625 137.928 105.535C137.666 105.445 137.328 105.694 137.183 106.108Z" fill="#263238"/>
<path d="M137.107 106.908C137.16 108.329 137.409 109.736 137.845 111.089C137.497 111.189 137.132 111.212 136.775 111.157C136.418 111.103 136.077 110.971 135.775 110.772L137.107 106.908Z" fill="#A02724"/>
<path d="M136.521 103.334C136.572 103.351 136.628 103.351 136.679 103.334C136.982 103.233 137.304 103.205 137.62 103.253C137.935 103.301 138.235 103.423 138.494 103.61C138.546 103.647 138.61 103.664 138.674 103.657C138.737 103.649 138.796 103.618 138.838 103.569C138.879 103.52 138.901 103.458 138.899 103.394C138.897 103.33 138.87 103.269 138.825 103.223C138.501 102.982 138.124 102.822 137.726 102.755C137.327 102.689 136.919 102.72 136.534 102.844C136.484 102.861 136.44 102.894 136.409 102.937C136.378 102.98 136.362 103.032 136.362 103.085C136.362 103.138 136.378 103.19 136.409 103.234C136.44 103.277 136.484 103.31 136.534 103.327L136.521 103.334Z" fill="#263238"/>
<path d="M122.051 107.612C122.824 111.538 123.59 118.735 120.844 121.357C120.844 121.357 121.92 125.338 129.22 125.338C137.245 125.338 133.057 121.357 133.057 121.357C128.675 120.308 128.786 117.058 129.552 114.008L122.051 107.612Z" fill="#B55B52"/>
<path d="M119.795 122.723C119.215 121.46 118.587 120.018 119.891 119.569C121.333 119.073 129.227 118.562 131.945 119.493C132.305 119.591 132.641 119.76 132.935 119.989C133.228 120.218 133.473 120.504 133.655 120.829C133.837 121.154 133.952 121.512 133.994 121.883C134.035 122.253 134.003 122.627 133.898 122.985L119.795 122.723Z" fill="#263238"/>
<path d="M147.36 129.457C149.05 132.5 150.865 135.633 152.701 138.641C154.536 141.649 156.461 144.644 158.517 147.376C159.028 148.066 159.559 148.722 160.084 149.377C160.346 149.716 160.622 149.992 160.891 150.302L161.291 150.757L161.395 150.875L161.443 150.93L161.491 150.992C161.813 151.303 162.199 151.539 162.623 151.682C163.275 151.909 163.947 152.073 164.631 152.172C167.985 152.511 171.366 152.471 174.712 152.055L175.76 155.712C174.829 156.126 173.959 156.402 173.035 156.747C172.11 157.092 171.199 157.319 170.275 157.554C168.315 158.046 166.306 158.314 164.286 158.354C163.152 158.373 162.019 158.259 160.912 158.016C159.552 157.746 158.269 157.176 157.158 156.346L156.696 155.967L156.585 155.87L156.516 155.801L156.385 155.67L155.847 155.139C155.495 154.787 155.109 154.449 154.791 154.076C154.101 153.352 153.453 152.627 152.852 151.882C150.442 148.969 148.218 145.906 146.194 142.712C145.186 141.139 144.216 139.55 143.282 137.944C142.344 136.323 141.44 134.736 140.563 133.024L147.36 129.457Z" fill="#B55B52"/>
<path d="M111.232 122.571C106.195 123.723 100.426 137.447 100.426 137.447L110.535 144.347C113.049 140.742 115.28 136.947 117.207 132.997C120.195 126.745 116.379 121.391 111.232 122.571Z" fill="#9971D7"/>
<path opacity="0.2" d="M114.833 131.32L110.059 144.044L110.528 144.375C110.528 144.375 112.598 141.47 114.833 137.551V131.32Z" fill="black"/>
<path d="M141.316 122.84C141.316 122.84 147.029 129.298 141.633 169.249H112.909C112.715 164.84 115.482 143.34 111.232 122.564C114.406 121.953 117.617 121.547 120.844 121.35C124.911 121.111 128.989 121.111 133.057 121.35C135.844 121.63 138.606 122.129 141.316 122.84Z" fill="#9971D7"/>
<path opacity="0.2" d="M138.121 134.398C138.87 138.932 140.83 143.18 143.793 146.693C143.91 144.12 143.958 141.808 143.952 139.745L138.121 134.398Z" fill="black"/>
<path d="M135.63 127.201C134.94 132.286 144.945 145.272 144.945 145.272L155.012 138.372C155.012 138.372 152.218 131.217 147.519 126.525C142.165 121.143 136.417 121.667 135.63 127.201Z" fill="#9971D7"/>
<path d="M173.58 152.089L177.679 150.406L181.895 153.593C181.895 153.593 177.872 157.154 174.215 155.767L173.58 152.089Z" fill="#B55B52"/>
<path d="M180.384 150.24L183.475 152.448L181.874 153.593L177.658 150.405L180.384 150.24Z" fill="#B55B52"/>
<path d="M123.838 100.491C122.403 105.625 121.299 108.557 122.941 112.014C125.405 117.223 132.408 117.079 135.361 112.483C138.011 108.343 139.915 100.643 135.692 96.9374C134.765 96.1139 133.643 95.5411 132.432 95.2734C131.221 95.0058 129.962 95.0522 128.774 95.4083C127.587 95.7644 126.509 96.4183 125.646 97.3079C124.782 98.1974 124.159 99.2932 123.838 100.491Z" fill="#B55B52"/>
<path d="M134.768 100.546C132.698 106.439 130.262 112.911 124.314 111.683C120.478 110.889 120.174 104.714 118.794 101.905C117.573 99.4421 117.649 94.4879 120.174 94.4258C119.042 92.7836 124.763 86.7737 128.668 89.9477C129.668 88.5677 136.879 84.5036 142.22 90.9551C147.25 97.0547 144.786 102.14 134.768 100.546Z" fill="#263238"/>
<path d="M130.11 104.314C129.972 105.63 130.268 106.955 130.952 108.088C131.87 109.564 133.215 108.999 133.712 107.488C134.154 106.108 134.202 103.727 132.926 102.768C131.649 101.809 130.304 102.727 130.11 104.314Z" fill="#B55B52"/>
<path d="M174.187 240.747C174.877 240.747 175.567 240.651 175.768 240.34C175.825 240.258 175.855 240.161 175.855 240.061C175.855 239.961 175.825 239.863 175.768 239.781C175.676 239.636 175.533 239.53 175.367 239.485C174.47 239.243 172.607 240.313 172.518 240.361C172.494 240.373 172.475 240.392 172.464 240.416C172.453 240.439 172.45 240.466 172.456 240.492C172.46 240.517 172.472 240.54 172.489 240.558C172.506 240.576 172.528 240.589 172.552 240.595C173.092 240.694 173.639 240.745 174.187 240.747ZM175.043 239.705C175.123 239.694 175.204 239.694 175.285 239.705C175.337 239.715 175.386 239.736 175.429 239.767C175.472 239.798 175.507 239.838 175.533 239.885C175.623 240.043 175.595 240.119 175.533 240.161C175.285 240.513 173.925 240.52 172.925 240.375C173.581 240.016 174.3 239.789 175.043 239.705Z" fill="#9971D7"/>
<path d="M172.566 240.595H172.621C173.27 240.306 174.553 239.146 174.45 238.525C174.45 238.38 174.325 238.208 173.98 238.167C173.856 238.156 173.732 238.17 173.613 238.208C173.495 238.246 173.385 238.307 173.29 238.387C172.6 238.946 172.462 240.395 172.455 240.457C172.453 240.479 172.456 240.502 172.464 240.522C172.473 240.543 172.486 240.561 172.504 240.575C172.523 240.586 172.544 240.593 172.566 240.595ZM173.877 238.422H173.953C174.18 238.422 174.194 238.539 174.201 238.567C174.263 238.932 173.387 239.843 172.725 240.237C172.78 239.629 173.02 239.053 173.415 238.587C173.543 238.477 173.708 238.419 173.877 238.422Z" fill="#9971D7"/>
<path d="M166.321 240.471H171.689L172.911 228.031H167.543L166.321 240.471Z" fill="#B55B52"/>
<path d="M171.993 239.85H166.135C166.027 239.851 165.923 239.888 165.839 239.956C165.755 240.023 165.696 240.118 165.673 240.223L164.61 244.97C164.583 245.086 164.582 245.206 164.609 245.322C164.635 245.438 164.687 245.546 164.762 245.639C164.836 245.731 164.931 245.806 165.039 245.856C165.147 245.906 165.264 245.931 165.383 245.929C167.494 245.895 170.551 245.77 173.208 245.77C176.32 245.77 179.004 245.936 182.647 245.936C184.855 245.936 185.469 243.707 184.544 243.507C180.342 242.59 176.913 242.493 173.284 240.25C172.899 240.001 172.452 239.862 171.993 239.85Z" fill="#263238"/>
<path opacity="0.2" d="M172.904 228.037L172.283 234.447H166.908L167.536 228.037H172.904Z" fill="black"/>
<path d="M152.666 240.74C152.894 240.77 153.125 240.754 153.347 240.694C153.568 240.634 153.776 240.53 153.957 240.388C154.02 240.301 154.054 240.196 154.054 240.088C154.054 239.98 154.02 239.875 153.957 239.788C153.916 239.712 153.859 239.646 153.789 239.595C153.72 239.544 153.641 239.508 153.556 239.491C152.77 239.305 151.286 240.319 151.224 240.361C151.204 240.376 151.189 240.396 151.179 240.419C151.17 240.442 151.166 240.467 151.169 240.492C151.174 240.516 151.186 240.538 151.203 240.555C151.22 240.572 151.242 240.584 151.266 240.589C151.726 240.689 152.195 240.74 152.666 240.74ZM153.356 239.719C153.407 239.712 153.458 239.712 153.508 239.719C153.557 239.726 153.604 239.745 153.645 239.774C153.686 239.803 153.719 239.841 153.743 239.885C153.86 240.099 153.791 240.181 153.743 240.216C153.515 240.513 152.418 240.52 151.611 240.388C152.13 240.037 152.722 239.808 153.342 239.719H153.356Z" fill="#9971D7"/>
<path d="M151.3 240.595H151.355C151.914 240.292 152.991 239.119 152.873 238.525C152.856 238.43 152.805 238.345 152.731 238.283C152.656 238.221 152.563 238.187 152.466 238.187C152.37 238.176 152.272 238.184 152.179 238.213C152.087 238.241 152.001 238.289 151.928 238.353C151.307 238.864 151.176 240.423 151.169 240.478C151.169 240.501 151.174 240.524 151.185 240.545C151.196 240.565 151.212 240.583 151.231 240.595C151.254 240.602 151.278 240.602 151.3 240.595ZM152.383 238.422H152.439C152.604 238.422 152.618 238.519 152.625 238.553C152.694 238.905 152.004 239.795 151.452 240.216C151.489 239.604 151.71 239.017 152.087 238.532C152.169 238.461 152.274 238.422 152.383 238.422Z" fill="#9971D7"/>
<path d="M145.146 240.471H150.514L153.212 228.031H147.843L145.146 240.471Z" fill="#B55B52"/>
<path d="M150.893 239.85H144.863C144.756 239.851 144.652 239.888 144.569 239.956C144.486 240.024 144.429 240.118 144.407 240.223L143.345 244.97C143.32 245.087 143.321 245.207 143.35 245.323C143.378 245.439 143.432 245.547 143.507 245.639C143.583 245.731 143.678 245.805 143.786 245.855C143.894 245.905 144.012 245.931 144.131 245.929C146.236 245.895 147.264 245.77 149.913 245.77C151.549 245.77 153.639 245.936 155.896 245.936C158.152 245.936 158.442 243.707 157.517 243.507C153.377 242.603 153.094 241.354 151.77 240.161C151.525 239.954 151.213 239.843 150.893 239.85Z" fill="#263238"/>
<g opacity="0.2">
<path d="M147.843 228.037H153.211L151.817 234.447H146.449L147.843 228.037Z" fill="black"/>
</g>
<path d="M141.633 169.256C141.633 169.256 181.86 173.514 181.419 194.034C181.134 206.922 178.656 219.667 174.091 231.722H166.115C166.115 231.722 166.522 218.702 166.253 197.691C166.17 191.392 153.453 189.315 141.026 188.583C135.764 188.252 130.699 186.457 126.402 183.401C122.106 180.344 118.749 176.148 116.711 171.285L115.862 169.256H141.633Z" fill="#263238"/>
<path d="M176.044 229.583C176.085 229.583 175.526 233.357 175.526 233.357H164.486L164.183 229.99L176.044 229.583Z" fill="#9971D7"/>
<path d="M133.022 169.256C133.022 169.256 162.182 178.916 162.92 190.895C164.3 212.933 153.46 231.722 153.46 231.722H145.408C145.408 231.722 148.464 222.407 149.548 202.438C150.928 177.357 104.125 202.397 112.895 169.256H133.022Z" fill="#263238"/>
<path d="M155.896 229.583C155.937 229.583 154.881 233.357 154.881 233.357H143.841L144.041 229.99L155.896 229.583Z" fill="#9971D7"/>
<path d="M154.053 190.384H109.203C109.203 189.026 109.743 187.724 110.703 186.764C111.663 185.804 112.965 185.264 114.323 185.264H148.933C150.291 185.264 151.593 185.804 152.554 186.764C153.514 187.724 154.053 189.026 154.053 190.384Z" fill="#9971D7"/>
<path d="M111.28 190.377L104.518 247.068H105.967L114.544 190.377H111.28Z" fill="#9971D7"/>
<path opacity="0.4" d="M111.28 190.377L104.518 247.068H105.967L114.544 190.377H111.28Z" fill="black"/>
<path d="M120.326 190.377L120.195 247.068H121.637L123.59 190.377H120.326Z" fill="#9971D7"/>
<path opacity="0.4" d="M120.326 190.377L120.195 247.068H121.637L123.59 190.377H120.326Z" fill="black"/>
<path d="M151.977 190.377L158.739 247.068H157.29L148.72 190.377H151.977Z" fill="#9971D7"/>
<path opacity="0.4" d="M151.977 190.377L158.739 247.068H157.29L148.72 190.377H151.977Z" fill="black"/>
<path d="M142.93 190.377L143.061 247.068H141.619L139.667 190.377H142.93Z" fill="#9971D7"/>
<path opacity="0.4" d="M142.93 190.377L143.061 247.068H141.619L139.667 190.377H142.93Z" fill="black"/>
</svg>
