<svg width="29" height="30" viewBox="0 0 29 30" fill="none" xmlns="http://www.w3.org/2000/svg">
<g clip-path="url(#clip0_4005_19)">
<path d="M28.9847 15.2806C28.9847 14.0515 28.886 13.1546 28.6725 12.2245H14.7888V17.772H22.9382C22.774 19.1506 21.8867 21.2268 19.9151 22.6219L19.8874 22.8076L24.2772 26.2454L24.5813 26.2761C27.3744 23.6683 28.9847 19.8315 28.9847 15.2806Z" fill="#4285F4"/>
<path d="M14.7889 29.8969C18.7814 29.8969 22.1331 28.5681 24.5814 26.2761L19.9151 22.6219C18.6664 23.5022 16.9905 24.1167 14.7889 24.1167C10.8785 24.1167 7.55954 21.5091 6.37644 17.9049L6.20303 17.9198L1.63849 21.4908L1.5788 21.6586C4.01047 26.5417 9.00532 29.8969 14.7889 29.8969Z" fill="#34A853"/>
<path d="M6.37645 17.905C6.06428 16.9749 5.88362 15.9782 5.88362 14.9485C5.88362 13.9187 6.06428 12.9221 6.36003 11.992L6.35176 11.7939L1.73002 8.16553L1.5788 8.23824C0.576596 10.2646 0.00152588 12.5401 0.00152588 14.9485C0.00152588 17.3569 0.576596 19.6323 1.5788 21.6587L6.37645 17.905Z" fill="#FBBC05"/>
<path d="M14.7889 5.78004C17.5655 5.78004 19.4386 6.99252 20.5066 8.00576L24.6799 3.8866C22.1168 1.47824 18.7814 0 14.7889 0C9.00531 0 4.01047 3.35508 1.5788 8.23821L6.36002 11.992C7.55954 8.38775 10.8785 5.78004 14.7889 5.78004Z" fill="#EB4335"/>
</g>
<defs>
<clipPath id="clip0_4005_19">
<rect width="29" height="30" fill="white"/>
</clipPath>
</defs>
</svg>
