<svg width="25" height="35" viewBox="0 0 25 35" fill="none" xmlns="http://www.w3.org/2000/svg">
<path d="M19.7919 7.69379C19.7917 9.21523 19.3639 10.7024 18.5625 11.9674C17.7612 13.2323 16.6222 14.2182 15.2898 14.8003C13.9574 15.3823 12.4913 15.5345 11.0768 15.2376C9.66241 14.9407 8.36321 14.2079 7.34351 13.132C6.32382 12.0561 5.62943 10.6854 5.34815 9.19318C5.06687 7.70095 5.21133 6.15425 5.76327 4.74864C6.3152 3.34303 7.24982 2.14164 8.44895 1.29639C9.64807 0.451147 11.0578 1.34128e-08 12.5 0C13.4576 6.70691e-05 14.4059 0.199126 15.2906 0.585811C16.1754 0.972497 16.9792 1.53924 17.6563 2.25367C18.3335 2.9681 18.8706 3.81624 19.237 4.74966C19.6034 5.68308 19.7919 6.68349 19.7919 7.69379ZM12.5 17.6629C10.4351 17.6603 8.39233 18.1119 6.50206 18.9887C4.6118 19.8655 2.91554 21.1484 1.5215 22.7555C-0.939303 25.584 -0.336567 30.0836 2.76183 32.0975C5.69144 33.9953 9.06213 35 12.5 35C15.9379 35 19.3086 33.9953 22.2382 32.0975C25.3366 30.0836 25.9393 25.584 23.4785 22.7555C22.0845 21.1484 20.3882 19.8655 18.4979 18.9887C16.6077 18.1119 14.5649 17.6603 12.5 17.6629Z" fill="white"/>
</svg>
